<?xml version="1.0" encoding="UTF-8" standalone="no"?>
<!-- Created with Inkscape (http://www.inkscape.org/) -->

<svg
   xmlns:dc="http://purl.org/dc/elements/1.1/"
   xmlns:cc="http://creativecommons.org/ns#"
   xmlns:rdf="http://www.w3.org/1999/02/22-rdf-syntax-ns#"
   xmlns:svg="http://www.w3.org/2000/svg"
   xmlns="http://www.w3.org/2000/svg"
   version="1.1"
   width="30"
   height="30"
   id="svg2993"
   xml:space="preserve"><metadata
     id="metadata2999"><rdf:RDF><cc:Work
         rdf:about=""><dc:format>image/svg+xml</dc:format><dc:type
           rdf:resource="http://purl.org/dc/dcmitype/StillImage" /><dc:title></dc:title></cc:Work></rdf:RDF></metadata><defs
     id="defs2997"><clipPath
       id="clipPath3007"><path
         d="m 6,0 15.999,0 0,24 L 6,24 6,0 z"
         id="path3009" /></clipPath><linearGradient
       x1="0"
       y1="0"
       x2="1"
       y2="0"
       id="linearGradient3015"
       gradientUnits="userSpaceOnUse"
       gradientTransform="matrix(0,-24.000488,-24.000488,0,14,24)"
       spreadMethod="pad"><stop
         id="stop3017"
         style="stop-color:#90c50e;stop-opacity:1"
         offset="0" /><stop
         id="stop3019"
         style="stop-color:#70a034;stop-opacity:1"
         offset="1" /></linearGradient><clipPath
       id="clipPath3027"><path
         d="M 7,23 21,23 21,1 7,1 7,23 z"
         id="path3029" /></clipPath><linearGradient
       x1="0"
       y1="0"
       x2="1"
       y2="0"
       id="linearGradient3035"
       gradientUnits="userSpaceOnUse"
       gradientTransform="matrix(0,-22.000488,-22.000488,0,14,23)"
       spreadMethod="pad"><stop
         id="stop3037"
         style="stop-color:#d9f991;stop-opacity:1"
         offset="0" /><stop
         id="stop3039"
         style="stop-color:#a8d73d;stop-opacity:1"
         offset="1" /></linearGradient><clipPath
       id="clipPath3047"><path
         d="M 8,22 20,22 20,2 8,2 8,22 z"
         id="path3049" /></clipPath><linearGradient
       x1="0"
       y1="0"
       x2="1"
       y2="0"
       id="linearGradient3055"
       gradientUnits="userSpaceOnUse"
       gradientTransform="matrix(0,-20.000488,-20.000488,0,14,22)"
       spreadMethod="pad"><stop
         id="stop3057"
         style="stop-color:#b3e810;stop-opacity:1"
         offset="0" /><stop
         id="stop3059"
         style="stop-color:#90c60d;stop-opacity:1"
         offset="1" /></linearGradient><clipPath
       id="clipPath3067"><path
         d="m 18,16 -8,0 0,3 8,0 0,-3 z m -9,-1 10,0 0,5 -10,0 0,-5 z"
         id="path3069" /></clipPath><linearGradient
       x1="0"
       y1="0"
       x2="1"
       y2="0"
       id="linearGradient3075"
       gradientUnits="userSpaceOnUse"
       gradientTransform="matrix(0,-5,-5,0,14,20)"
       spreadMethod="pad"><stop
         id="stop3077"
         style="stop-color:#90c50e;stop-opacity:1"
         offset="0" /><stop
         id="stop3079"
         style="stop-color:#70a034;stop-opacity:1"
         offset="1" /></linearGradient><clipPath
       id="clipPath3087"><path
         d="M 3,24 C 2.45,24 2,23.549 2,23 L 2,23 2,1 C 2,0.45 2.45,0 3,0 L 3,0 4.594,0 6,0 l 0.999,0 0,1 0,22 0,1 L 3,24 z"
         id="path3089" /></clipPath><linearGradient
       x1="0"
       y1="0"
       x2="1"
       y2="0"
       id="linearGradient3095"
       gradientUnits="userSpaceOnUse"
       gradientTransform="matrix(0,-24.000488,-24.000488,0,4.4995117,24)"
       spreadMethod="pad"><stop
         id="stop3097"
         style="stop-color:#656565;stop-opacity:1"
         offset="0" /><stop
         id="stop3099"
         style="stop-color:#1b1b1b;stop-opacity:1"
         offset="1" /></linearGradient><clipPath
       id="clipPath3107"><path
         d="m 3,1 3.001,0 0,22.001 L 3,23.001 3,1 z"
         id="path3109" /></clipPath><linearGradient
       x1="0"
       y1="0"
       x2="1"
       y2="0"
       id="linearGradient3115"
       gradientUnits="userSpaceOnUse"
       gradientTransform="matrix(0,-22.000488,-22.000488,0,4.4995117,23)"
       spreadMethod="pad"><stop
         id="stop3117"
         style="stop-color:#8e8e8e;stop-opacity:1"
         offset="0" /><stop
         id="stop3119"
         style="stop-color:#414141;stop-opacity:1"
         offset="1" /></linearGradient><clipPath
       id="clipPath3127"><path
         d="m 4,2 1.001,0 0,20 L 4,22 4,2 z"
         id="path3129" /></clipPath><linearGradient
       x1="0"
       y1="0"
       x2="1"
       y2="0"
       id="linearGradient3135"
       gradientUnits="userSpaceOnUse"
       gradientTransform="matrix(0,-20.000488,-20.000488,0,4.4995117,22)"
       spreadMethod="pad"><stop
         id="stop3137"
         style="stop-color:#7c7c7c;stop-opacity:1"
         offset="0" /><stop
         id="stop3139"
         style="stop-color:#3b3b3b;stop-opacity:1"
         offset="1" /></linearGradient></defs><g
     transform="matrix(1.25,0,0,-1.25,0,30)"
     id="g3001"><g
       transform="translate(-2.0040734,-0.04887984)"
       id="g3083"
       style="fill:#333333"><g
         clip-path="url(#clipPath3087)"
         id="g3085"
         style="fill:#333333"><g
           id="g3091"
           style="fill:#333333"><g
             id="g3093"
             style="fill:#333333"><path
               d="M 3,24 C 2.45,24 2,23.549 2,23 L 2,23 2,1 C 2,0.45 2.45,0 3,0 L 3,0 4.594,0 6,0 l 0.999,0 0,1 0,22 0,1 L 3,24 z"
               id="path3101"
               style="fill:#333333;stroke:none" /></g></g></g></g><g
       transform="matrix(-1,0,0,1,26.058063,0)"
       id="g3143"
       style="fill:#333333"><g
         clip-path="url(#clipPath3087)"
         id="g3145"
         style="fill:#333333"><g
           id="g3147"
           style="fill:#333333"><g
             id="g3149"
             style="fill:#333333"><path
               d="M 3,24 C 2.45,24 2,23.549 2,23 L 2,23 2,1 C 2,0.45 2.45,0 3,0 L 3,0 4.594,0 6,0 l 0.999,0 0,1 0,22 0,1 L 3,24 z"
               id="path3151"
               style="fill:#333333;stroke:none" /></g></g></g></g><rect
       width="14.370671"
       height="24"
       x="4.8391042"
       y="-24"
       transform="scale(1,-1)"
       id="rect3925"
       style="fill:#333333;stroke:none" /><rect
       width="14.167911"
       height="10.941841"
       ry="0.99925482"
       x="4.9649248"
       y="-18.35076"
       transform="scale(1,-1)"
       id="rect3931"
       style="fill:none;stroke:#ffffff;stroke-width:1.76269627;stroke-linejoin:round;stroke-miterlimit:4;stroke-dasharray:none" /><rect
       width="7.057672"
       height="0.31225607"
       ry="0"
       x="8.4467239"
       y="-6.1683483"
       transform="scale(1,-1)"
       id="rect3933"
       style="fill:none;stroke:#ffffff;stroke-width:0.82550389;stroke-linejoin:miter;stroke-miterlimit:4;stroke-dasharray:none" /><rect
       width="9.9310541"
       height="0.20396517"
       x="7.0344729"
       y="-4.843327"
       transform="scale(1,-1)"
       id="rect3945"
       style="fill:none;stroke:#ffffff;stroke-width:1.22707355;stroke-linejoin:miter;stroke-miterlimit:4;stroke-dasharray:none" /></g></svg>